# xmcd CD database file
#
# Track frame offsets:
#	150
#	29180
#	45907
#	66890
#	90997
#	116020
#	139655
#	150165
#	163647
#	184532
#	198482
#	211945
#
# Disc length: 3112 seconds
#
# Revision: 0
# Processed by: cddbd v1.5PL3 Copyright (c) Steve Scherf et al.
# Submitted via: CDex 1.50
#
DISCID=980c260c
DTITLE=Network Music - Harmony
DYEAR=1997
DGENRE=New Age
TTITLE0=Melodia
TTITLE1=One Heart
TTITLE2=Evermore
TTITLE3=Monarch
TTITLE4=Mind's Eye
TTITLE5=Storybook Ending
TTITLE6=Passages
TTITLE7=Hands Of Time
TTITLE8=Novella
TTITLE9=Window Pane
TTITLE10=Sunset Cafe
TTITLE11=Secret Weekend
EXTD=YEAR: 1997
EXTT0=
EXTT1=
EXTT2=
EXTT3=
EXTT4=
EXTT5=
EXTT6=
EXTT7=
EXTT8=
EXTT9=
EXTT10=
EXTT11=
PLAYORDER=
